# xmcd
#
# Track frame offsets: 
#        150
#        31700
#        42885
#        95842
#        109965
#        119902
#        130205
#        144505
#        162962
#        181015
#        216422
#        235575
#
# Disc length: 3574 seconds
#
# Revision: 4
# Processed by: cddbd v1.5.2PL0 Copyright (c) Steve Scherf et al.
# Submitted via: ExactAudioCopyFreeDBPlugin 1.0
#
DISCID=a90df40c
DTITLE=The Doors - Super Stars Best Collection
DYEAR=1900
DGENRE=New Age
TTITLE0=Light My Fire
TTITLE1=Break On Through
TTITLE2=The End
TTITLE3=Strangs Days
TTITLE4=People Are Strange
TTITLE5=Hello I Love You
TTITLE6=Touch Me
TTITLE7=Roadhouse Blues
TTITLE8=Waiting For The Sun
TTITLE9=L . A  Woman
TTITLE10=The Wasp  ( Texas radio and the big beat )
TTITLE11=Riders On The Storm
EXTD=JASRAC Made In Japan
EXTT0=
EXTT1=
EXTT2=
EXTT3=
EXTT4=
EXTT5=
EXTT6=
EXTT7=
EXTT8=
EXTT9=
EXTT10=
EXTT11=
PLAYORDER=
